<svg width="212" height="51" viewBox="0 0 212 51" fill="none" xmlns="http://www.w3.org/2000/svg">
<g clip-path="url(#clip0_435_1233)">
<path d="M0 47.1479H12.229L22.5167 24.8555H10.2877L0 47.1479Z" fill="#1A2E51"/>
<path d="M12.2285 2.17139L32.7967 47.1479H45.0329L24.4647 2.17139H12.2285Z" fill="#1A2E51"/>
<path d="M30.5801 2.17139L51.1483 47.1479H63.3845L42.8163 2.17139H30.5801Z" fill="#1A2E51"/>
<path d="M96.5877 38.8675H77.9462L64.9466 10.4519H83.5953L79.8074 2.17139H48.9297L69.4979 47.1479H100.376L96.5877 38.8675Z" fill="#1A2E51"/>
<path d="M111.859 11.8281L116.509 1.49536H118.398L123.062 11.8281H121.055L117.055 2.51388H117.822L113.837 11.8281H111.859ZM113.999 9.43683L114.516 7.9312H120.096L120.612 9.43683H113.999ZM123.594 11.8281V10.5439L130.266 2.39579L130.488 3.11908H123.698V1.49536H132.215V2.77958L125.543 10.9277L125.307 10.2044H132.407V11.8281H123.594ZM135.936 5.79084H141.073V7.37028H135.936V5.79084ZM136.083 10.2192H141.914V11.8281H134.164V1.49536H141.707V3.10432H136.083V10.2192ZM144.053 11.8281V1.49536H148.304C149.22 1.49536 150.002 1.64297 150.651 1.93819C151.311 2.23342 151.818 2.65657 152.172 3.20765C152.526 3.75873 152.703 4.41314 152.703 5.17087C152.703 5.92861 152.526 6.58302 152.172 7.1341C151.818 7.67534 151.311 8.09357 150.651 8.38879C150.002 8.67417 149.22 8.81686 148.304 8.81686H145.116L145.972 7.94596V11.8281H144.053ZM150.814 11.8281L148.201 8.07881H150.253L152.88 11.8281H150.814ZM145.972 8.15261L145.116 7.23743H148.216C149.062 7.23743 149.697 7.05537 150.12 6.69126C150.553 6.32716 150.77 5.82036 150.77 5.17087C150.77 4.51154 150.553 4.00475 150.12 3.65048C149.697 3.29621 149.062 3.11908 148.216 3.11908H145.116L145.972 2.17437V8.15261ZM154.85 11.8281V1.49536H159.692C160.932 1.49536 161.876 1.74138 162.526 2.23342C163.175 2.71561 163.5 3.3651 163.5 4.18188C163.5 4.73296 163.372 5.20532 163.116 5.59894C162.86 5.98273 162.516 6.28287 162.083 6.49937C161.66 6.70603 161.197 6.80935 160.696 6.80935L160.961 6.27795C161.542 6.27795 162.063 6.3862 162.526 6.6027C162.988 6.80935 163.353 7.11442 163.618 7.51789C163.894 7.92136 164.032 8.42323 164.032 9.02352C164.032 9.90918 163.692 10.598 163.013 11.0901C162.334 11.5821 161.325 11.8281 159.987 11.8281H154.85ZM156.769 10.3225H159.869C160.587 10.3225 161.138 10.2044 161.522 9.96823C161.906 9.73205 162.098 9.35318 162.098 8.83162C162.098 8.31991 161.906 7.94596 161.522 7.70978C161.138 7.46376 160.587 7.34075 159.869 7.34075H156.621V5.84988H159.485C160.154 5.84988 160.666 5.73179 161.02 5.49562C161.384 5.25944 161.566 4.90517 161.566 4.43282C161.566 3.95062 161.384 3.59144 161.02 3.35526C160.666 3.11908 160.154 3.00099 159.485 3.00099H156.769V10.3225ZM164.618 11.8281L169.268 1.49536H171.157L175.822 11.8281H173.814L169.814 2.51388H170.582L166.596 11.8281H164.618ZM166.759 9.43683L167.275 7.9312H172.855L173.372 9.43683H166.759ZM177.136 11.8281V1.49536H179.055V11.8281H177.136ZM183.459 11.9757C182.799 11.9757 182.189 11.8478 181.628 11.5919C181.077 11.3361 180.625 10.9671 180.27 10.4849L181.363 9.17113C181.648 9.56476 181.958 9.85998 182.293 10.0568C182.637 10.2536 183.011 10.352 183.414 10.352C184.487 10.352 185.023 9.71729 185.023 8.44783V3.10432H181.348V1.49536H186.942V8.34451C186.942 9.56476 186.642 10.475 186.042 11.0753C185.451 11.6756 184.59 11.9757 183.459 11.9757ZM187.956 11.8281L192.606 1.49536H194.495L199.16 11.8281H197.152L193.152 2.51388H193.92L189.934 11.8281H187.956ZM190.097 9.43683L190.613 7.9312H196.193L196.71 9.43683H190.097ZM200.474 11.8281V1.49536H202.053L208.534 9.45159H207.751V1.49536H209.655V11.8281H208.076L201.596 3.8719H202.378V11.8281H200.474Z" fill="#1A2E51"/>
<path d="M113.32 29.2588V18.926H115.239V29.2588H113.32ZM118.034 29.2588V18.926H119.613L126.093 26.8823H125.311V18.926H127.215V29.2588H125.636L119.156 21.3026H119.938V29.2588H118.034ZM132.968 29.2588L128.451 18.926H130.532L134.562 28.2698H133.366L137.44 18.926H139.359L134.857 29.2588H132.968ZM142.221 23.2215H147.358V24.8009H142.221V23.2215ZM142.368 27.6498H148.199V29.2588H140.449V18.926H147.992V20.535H142.368V27.6498ZM153.541 29.4064C152.734 29.4064 151.962 29.2932 151.224 29.0669C150.486 28.8307 149.9 28.5306 149.467 28.1665L150.132 26.6756C150.545 27.0003 151.057 27.271 151.667 27.4875C152.277 27.704 152.902 27.8122 153.541 27.8122C154.083 27.8122 154.521 27.7532 154.855 27.6351C155.19 27.517 155.436 27.3595 155.593 27.1627C155.751 26.9561 155.829 26.7248 155.829 26.4689C155.829 26.154 155.716 25.9031 155.49 25.7161C155.263 25.5193 154.968 25.3668 154.604 25.2585C154.25 25.1404 153.851 25.0322 153.409 24.9338C152.976 24.8354 152.538 24.7222 152.095 24.5943C151.662 24.4565 151.263 24.2843 150.899 24.0776C150.545 23.8611 150.255 23.5758 150.028 23.2215C149.802 22.8672 149.689 22.4146 149.689 21.8635C149.689 21.3026 149.836 20.7908 150.132 20.3283C150.437 19.856 150.894 19.482 151.504 19.2065C152.124 18.9211 152.907 18.7784 153.851 18.7784C154.471 18.7784 155.086 18.8571 155.696 19.0146C156.307 19.172 156.838 19.3984 157.291 19.6936L156.685 21.1845C156.223 20.9089 155.746 20.7072 155.254 20.5793C154.762 20.4415 154.289 20.3726 153.837 20.3726C153.305 20.3726 152.872 20.4366 152.538 20.5645C152.213 20.6924 151.972 20.8597 151.814 21.0664C151.667 21.273 151.593 21.5092 151.593 21.7749C151.593 22.0898 151.701 22.3457 151.918 22.5425C152.144 22.7295 152.434 22.8771 152.789 22.9853C153.153 23.0936 153.556 23.2018 153.999 23.3101C154.442 23.4085 154.88 23.5216 155.313 23.6496C155.756 23.7775 156.154 23.9448 156.508 24.1515C156.872 24.3581 157.163 24.6386 157.379 24.9928C157.606 25.3471 157.719 25.7949 157.719 26.3361C157.719 26.8872 157.566 27.3989 157.261 27.8712C156.966 28.3338 156.508 28.7077 155.888 28.9931C155.268 29.2686 154.486 29.4064 153.541 29.4064ZM161.573 29.2588V20.5497H158.149V18.926H166.917V20.5497H163.492V29.2588H161.573ZM168.357 29.2588V18.926H169.937L174.453 26.4689H173.627L178.07 18.926H179.649L179.664 29.2588H177.849L177.834 21.7749H178.218L174.439 28.0779H173.583L169.745 21.7749H170.187V29.2588H168.357ZM184.226 23.2215H189.363V24.8009H184.226V23.2215ZM184.374 27.6498H190.205V29.2588H182.455V18.926H189.998V20.535H184.374V27.6498ZM192.344 29.2588V18.926H193.923L200.403 26.8823H199.621V18.926H201.525V29.2588H199.946L193.466 21.3026H194.248V29.2588H192.344ZM206.39 29.2588V20.5497H202.966V18.926H211.734V20.5497H208.309V29.2588H206.39Z" fill="#1A2E51"/>
<path d="M118.103 46.8371C117.315 46.8371 116.582 46.7091 115.903 46.4533C115.234 46.1876 114.649 45.8185 114.147 45.3462C113.655 44.864 113.271 44.2982 112.995 43.6487C112.72 42.9992 112.582 42.2906 112.582 41.5231C112.582 40.7555 112.72 40.047 112.995 39.3975C113.271 38.748 113.66 38.1871 114.162 37.7147C114.663 37.2325 115.249 36.8635 115.918 36.6076C116.587 36.3419 117.32 36.2091 118.118 36.2091C118.964 36.2091 119.736 36.3567 120.435 36.6519C121.134 36.9373 121.724 37.3654 122.206 37.9361L120.966 39.1023C120.592 38.6988 120.174 38.3986 119.712 38.2018C119.249 37.9952 118.747 37.8918 118.206 37.8918C117.665 37.8918 117.168 37.9804 116.715 38.1575C116.272 38.3347 115.884 38.5856 115.549 38.9104C115.224 39.2351 114.968 39.6189 114.782 40.0617C114.604 40.5046 114.516 40.9917 114.516 41.5231C114.516 42.0545 114.604 42.5416 114.782 42.9844C114.968 43.4273 115.224 43.811 115.549 44.1358C115.884 44.4605 116.272 44.7115 116.715 44.8886C117.168 45.0657 117.665 45.1543 118.206 45.1543C118.747 45.1543 119.249 45.0559 119.712 44.8591C120.174 44.6524 120.592 44.3424 120.966 43.9291L122.206 45.11C121.724 45.6709 121.134 46.099 120.435 46.3942C119.736 46.6895 118.959 46.8371 118.103 46.8371ZM128.67 46.8371C127.863 46.8371 127.121 46.7042 126.442 46.4385C125.762 46.1728 125.172 45.8038 124.67 45.3314C124.168 44.8492 123.78 44.2883 123.504 43.6487C123.229 42.9992 123.091 42.2906 123.091 41.5231C123.091 40.7555 123.229 40.0519 123.504 39.4122C123.78 38.7627 124.168 38.2018 124.67 37.7295C125.172 37.2473 125.762 36.8733 126.442 36.6076C127.121 36.3419 127.859 36.2091 128.656 36.2091C129.463 36.2091 130.201 36.3419 130.87 36.6076C131.549 36.8733 132.139 37.2473 132.641 37.7295C133.143 38.2018 133.532 38.7627 133.807 39.4122C134.083 40.0519 134.221 40.7555 134.221 41.5231C134.221 42.2906 134.083 42.9992 133.807 43.6487C133.532 44.2982 133.143 44.8591 132.641 45.3314C132.139 45.8038 131.549 46.1728 130.87 46.4385C130.201 46.7042 129.468 46.8371 128.67 46.8371ZM128.656 45.1543C129.177 45.1543 129.659 45.0657 130.102 44.8886C130.545 44.7115 130.929 44.4605 131.254 44.1358C131.578 43.8012 131.829 43.4174 132.006 42.9844C132.193 42.5416 132.287 42.0545 132.287 41.5231C132.287 40.9917 132.193 40.5095 132.006 40.0765C131.829 39.6337 131.578 39.2499 131.254 38.9251C130.929 38.5905 130.545 38.3347 130.102 38.1575C129.659 37.9804 129.177 37.8918 128.656 37.8918C128.134 37.8918 127.652 37.9804 127.209 38.1575C126.776 38.3347 126.392 38.5905 126.058 38.9251C125.733 39.2499 125.477 39.6337 125.29 40.0765C125.113 40.5095 125.024 40.9917 125.024 41.5231C125.024 42.0446 125.113 42.5268 125.29 42.9697C125.477 43.4125 125.733 43.8012 126.058 44.1358C126.382 44.4605 126.766 44.7115 127.209 44.8886C127.652 45.0657 128.134 45.1543 128.656 45.1543ZM136.255 46.6895V36.3567H137.834L142.351 43.8996H141.524L145.967 36.3567H147.547L147.562 46.6895H145.746L145.731 39.2056H146.115L142.336 45.5086H141.48L137.642 39.2056H138.085V46.6895H136.255ZM150.353 46.6895V36.3567H154.604C155.519 36.3567 156.301 36.5043 156.951 36.7995C157.61 37.0947 158.117 37.5179 158.471 38.069C158.825 38.6201 159.003 39.2745 159.003 40.0322C159.003 40.7899 158.825 41.4443 158.471 41.9954C158.117 42.5465 157.61 42.9697 156.951 43.2649C156.301 43.5601 155.519 43.7077 154.604 43.7077H151.415L152.272 42.8073V46.6895H150.353ZM152.272 43.0139L151.415 42.084H154.515C155.362 42.084 155.996 41.9069 156.419 41.5526C156.852 41.1885 157.069 40.6817 157.069 40.0322C157.069 39.3729 156.852 38.8661 156.419 38.5118C155.996 38.1575 155.362 37.9804 154.515 37.9804H151.415L152.272 37.0357V43.0139ZM158.939 46.6895L163.588 36.3567H165.478L170.142 46.6895H168.135L164.135 37.3752H164.902L160.917 46.6895H158.939ZM161.079 44.2982L161.596 42.7925H167.175L167.692 44.2982H161.079ZM171.456 46.6895V36.3567H173.036L179.516 44.3129H178.734V36.3567H180.638V46.6895H179.058L172.578 38.7332H173.361V46.6895H171.456ZM185.945 46.6895V42.6006L186.373 43.7815L181.886 36.3567H183.938L187.54 42.3349H186.388L190.019 36.3567H191.909L187.422 43.7815L187.864 42.6006V46.6895H185.945Z" fill="#1A2E51"/>
</g>
<defs>
<clipPath id="clip0_435_1233">
<rect width="212" height="51" fill="white"/>
</clipPath>
</defs>
</svg>
