<svg width="68" height="48" viewBox="0 0 68 48" fill="none" xmlns="http://www.w3.org/2000/svg">
<path d="M13.5762 7.26447C13.4829 7.21478 13.3808 7.18393 13.2756 7.1737C13.1705 7.16347 13.0643 7.17406 12.9632 7.20485C12.8622 7.23565 12.7682 7.28605 12.6866 7.35318C12.605 7.42031 12.5374 7.50285 12.4877 7.5961L11.9832 8.54283C11.8829 8.73115 11.8614 8.95162 11.9236 9.15575C11.9858 9.35988 12.1265 9.53094 12.3148 9.63131C12.5032 9.73167 12.7236 9.75312 12.9278 9.69092C13.1319 9.62873 13.303 9.488 13.4033 9.29968L13.9078 8.35295C13.9575 8.2597 13.9883 8.15758 13.9986 8.05242C14.0088 7.94725 13.9982 7.8411 13.9674 7.74003C13.9366 7.63895 13.8862 7.54493 13.8191 7.46334C13.752 7.38174 13.6694 7.31417 13.5762 7.26447Z" fill="#F5B458"/>
<path d="M11.9363 10.3416C11.843 10.2919 11.7409 10.2611 11.6357 10.2509C11.5306 10.2406 11.4244 10.2512 11.3234 10.282C11.2223 10.3128 11.1283 10.3632 11.0467 10.4303C10.9651 10.4975 10.8975 10.58 10.8478 10.6732L6.62238 18.602C6.52202 18.7904 6.50057 19.0108 6.56276 19.215C6.62495 19.4191 6.76569 19.5902 6.954 19.6905C7.14232 19.7909 7.36279 19.8123 7.56692 19.7501C7.77105 19.6879 7.94211 19.5472 8.04248 19.3589L12.2679 11.43C12.3682 11.2417 12.3896 11.0212 12.3275 10.8171C12.2653 10.613 12.1246 10.442 11.9363 10.3416Z" fill="#F5B458"/>
<path d="M58.6056 2.46304C58.5157 2.27126 58.3538 2.12267 58.155 2.04951C57.9562 1.97636 57.7366 1.98454 57.5438 2.07228L43.8993 8.28101C43.661 8.37841 43.4449 8.52332 43.2644 8.70692C43.0838 8.89051 42.9426 9.10895 42.8492 9.34891C42.7558 9.58887 42.7122 9.84534 42.7211 10.1027C42.7301 10.36 42.7913 10.6129 42.9011 10.8458L43.3273 11.7493L43.0942 11.8485C41.7102 12.1367 40.7475 12.0962 39.3192 11.6947L35.7585 10.694C34.7227 10.4019 33.6241 10.4197 32.5982 10.7451L29.1617 11.8321C28.4674 12.0519 27.8235 12.4071 27.2672 12.8771C26.2888 12.5806 25.2605 12.4854 24.2444 12.5971L24.5894 11.94C24.8128 11.5128 24.8655 11.0168 24.7368 10.5522C24.6081 10.0876 24.3077 9.68936 23.8964 9.43801C23.8907 9.43465 23.885 9.43117 23.8792 9.42795L11.4617 2.28683C11.3678 2.2328 11.2638 2.19832 11.1562 2.18545C11.0486 2.17259 10.9394 2.1816 10.8354 2.21196C10.7313 2.24232 10.6344 2.2934 10.5506 2.36212C10.4668 2.43084 10.3977 2.5158 10.3475 2.61189L0.0914435 22.2477C-0.00550234 22.4333 -0.0262862 22.6494 0.0335059 22.85C0.093298 23.0507 0.228956 23.2201 0.411669 23.3224L12.7732 30.2397C13.0561 30.4002 13.3758 30.4847 13.701 30.4851C13.8839 30.4848 14.0658 30.4583 14.2412 30.4064C14.485 30.3353 14.7118 30.2157 14.9081 30.0546C15.1045 29.8936 15.2661 29.6945 15.3834 29.4693L15.4975 29.252L16.7059 30.4684L14.909 32.9627C14.4591 33.5872 14.2757 34.3649 14.3992 35.1246C14.5226 35.8843 14.9428 36.5639 15.5673 37.0139L15.8526 37.2195C16.3454 37.5752 16.9379 37.7663 17.5456 37.7655C17.7253 37.7652 17.9046 37.7484 18.0812 37.7152C18.0843 37.7375 18.0851 37.7597 18.0887 37.7823C18.1488 38.1588 18.283 38.5197 18.4835 38.844C18.684 39.1683 18.9469 39.4497 19.2568 39.6717L19.5422 39.8773C20.0349 40.2331 20.6272 40.4243 21.2349 40.4237C21.4146 40.4234 21.5939 40.4066 21.7705 40.3734C21.7736 40.3957 21.7744 40.418 21.778 40.4405C21.8381 40.817 21.9723 41.1779 22.1728 41.5022C22.3733 41.8266 22.6362 42.1079 22.9461 42.3299L23.2315 42.5355C23.7241 42.8913 24.3164 43.0825 24.9241 43.082C25.1041 43.0816 25.2836 43.0647 25.4605 43.0314C25.5133 43.4201 25.6447 43.7941 25.8466 44.1304C26.0485 44.4668 26.3168 44.7585 26.635 44.9879L26.9204 45.1935C27.5452 45.6427 28.3226 45.8257 29.0822 45.7023C29.8417 45.5789 30.5213 45.1591 30.9716 44.5352L31.7977 43.3888L33.1211 44.4463C33.5813 44.8404 34.1412 45.1001 34.7394 45.1967C35.3375 45.2934 35.9508 45.2232 36.5117 44.994C37.0725 44.7647 37.5594 44.3853 37.9186 43.8974C38.2779 43.4095 38.4957 42.8319 38.548 42.2283C39.0213 42.3918 39.5255 42.4453 40.0225 42.3846C40.5195 42.3239 40.9961 42.1507 41.4161 41.8781C41.8361 41.6055 42.1883 41.2406 42.4461 40.8114C42.7038 40.3822 42.8603 39.8998 42.9035 39.401C43.3678 39.5613 43.8621 39.6158 44.3502 39.5605C44.8382 39.5051 45.3077 39.3413 45.7243 39.0809C46.1408 38.8206 46.4939 38.4705 46.7576 38.056C47.0213 37.6416 47.1889 37.1735 47.2483 36.6859C47.6634 36.8697 48.1123 36.9647 48.5662 36.9651C48.6494 36.9651 48.7332 36.962 48.817 36.9557C49.2506 36.924 49.6737 36.8068 50.0618 36.6109C50.45 36.4149 50.7955 36.1442 51.0785 35.8141L51.1198 35.7664C51.4105 35.4316 51.6286 35.0402 51.7604 34.6169C51.8921 34.1935 51.9346 33.7475 51.8851 33.3069C51.7851 32.4757 51.3743 31.7131 50.7351 31.1723L49.9327 30.4796C50.516 30.0748 51.0436 29.5949 51.5016 29.0524C51.6695 29.3293 51.9059 29.5583 52.188 29.7174C52.4701 29.8764 52.7884 29.9601 53.1123 29.9603C53.3736 29.9601 53.632 29.9061 53.8715 29.8017L53.8929 29.7922L67.5358 23.406C67.6798 23.3385 67.8006 23.2299 67.8831 23.0939C67.9656 22.9579 68.006 22.8006 67.9993 22.6417C67.9931 22.5294 67.9645 22.4194 67.9151 22.3184L58.6056 2.46304ZM14.0557 28.5357C14.0253 28.5937 13.9835 28.645 13.9329 28.6866C13.8823 28.7282 13.8238 28.7593 13.761 28.7779C13.6982 28.7966 13.6323 28.8025 13.5672 28.7952C13.5021 28.788 13.4391 28.7678 13.3819 28.7358L1.87964 22.2991L11.3854 4.09997L22.891 10.7166C22.999 10.7788 23.0786 10.8803 23.1133 10.9999C23.1481 11.1195 23.1351 11.2479 23.0773 11.3582L14.0557 28.5357ZM18.5983 35.6201C18.3975 35.898 18.0948 36.0849 17.7564 36.1399C17.418 36.1949 17.0716 36.1134 16.7932 35.9134L16.5078 35.7078C16.37 35.6085 16.2531 35.4831 16.1638 35.3387C16.0745 35.1942 16.0145 35.0336 15.9872 34.866C15.96 34.6984 15.9661 34.527 16.0051 34.3617C16.0441 34.1964 16.1153 34.0405 16.2146 33.9027L19.8497 28.857C20.0504 28.579 20.3531 28.3919 20.6916 28.3369C21.03 28.2819 21.3764 28.3635 21.6548 28.5637L21.9401 28.7693C22.078 28.8685 22.1949 28.9939 22.2842 29.1384C22.3735 29.2828 22.4335 29.4434 22.4607 29.611C22.488 29.7786 22.4819 29.95 22.4429 30.1152C22.4039 30.2805 22.3327 30.4365 22.2334 30.5742L18.5983 35.6201ZM22.2887 38.278C22.0877 38.556 21.7847 38.7429 21.4462 38.7979C21.1076 38.8529 20.7611 38.7714 20.4825 38.5713L20.1971 38.3657C19.9189 38.1653 19.7317 37.8625 19.6767 37.524C19.6217 37.1855 19.7034 36.839 19.9039 36.5608L22.5959 32.8241C22.7966 32.5462 23.0994 32.3593 23.4378 32.3043C23.7762 32.2493 24.1225 32.3307 24.401 32.5307L24.6863 32.7363C24.9644 32.9369 25.1516 33.2396 25.2068 33.578C25.2619 33.9164 25.1806 34.2629 24.9807 34.5414L22.2887 38.278ZM25.9764 40.936C25.7756 41.2139 25.4729 41.4009 25.1345 41.4559C24.7961 41.5109 24.4497 41.4294 24.1713 41.2294L23.8859 41.0237C23.6077 40.8232 23.4205 40.5204 23.3655 40.1819C23.3105 39.8434 23.3922 39.497 23.5926 39.2187L25.5131 36.553C25.7138 36.2751 26.0166 36.0882 26.355 36.0333C26.6934 35.9783 27.0397 36.0598 27.3181 36.2599L27.6035 36.4654C27.8814 36.6662 28.0684 36.9689 28.1234 37.3073C28.1784 37.6457 28.0969 37.9921 27.8968 38.2705L25.9764 40.936ZM30.8143 41.9995L29.6657 43.5939C29.4649 43.8719 29.1622 44.0588 28.8238 44.1138C28.4854 44.1689 28.139 44.0874 27.8606 43.8873L27.5752 43.6818C27.2973 43.481 27.1104 43.1783 27.0554 42.8399C27.0004 42.5015 27.0819 42.1551 27.2819 41.8767L28.4308 40.2823C28.6314 40.0043 28.9342 39.8173 29.2726 39.7623C29.6109 39.7073 29.9573 39.7888 30.2357 39.9889L30.5211 40.1944C30.7991 40.3951 30.9861 40.6978 31.0412 41.0362C31.0963 41.3746 31.0149 41.7211 30.8149 41.9995H30.8143ZM48.6374 29.3506L48.7281 29.4404L46.3237 27.3649C46.0287 27.1102 45.7426 26.8458 45.4655 26.5717L40.7446 21.9035C40.673 21.8331 40.5823 21.7853 40.4838 21.7663C40.3853 21.7472 40.2833 21.7577 40.1907 21.7964C40.0981 21.835 40.019 21.9002 39.9632 21.9837C39.9075 22.0671 39.8777 22.1652 39.8775 22.2655C39.9134 22.9256 40.1755 23.5531 40.6196 24.0427L44.3559 27.7367C44.6319 28.0097 44.9168 28.2729 45.2106 28.5266L49.7353 32.4349C49.9021 32.5781 50.0377 32.754 50.1338 32.9517C50.2298 33.1495 50.2842 33.3648 50.2937 33.5845C50.3067 34.0138 50.1548 34.4318 49.8692 34.7526L49.8612 34.762C49.7157 34.9321 49.5379 35.0717 49.3381 35.1728C49.1384 35.2739 48.9206 35.3344 48.6974 35.3509C48.4761 35.3684 48.2537 35.3415 48.0429 35.2718C47.8322 35.2022 47.6375 35.0912 47.4702 34.9454L42.6274 30.7616C42.4681 30.6197 42.2601 30.5449 42.0468 30.5528C41.8336 30.5607 41.6317 30.6507 41.4833 30.804C41.4104 30.8833 41.3543 30.9765 41.3181 31.078C41.2819 31.1795 41.2665 31.2872 41.2728 31.3948C41.279 31.5023 41.3068 31.6075 41.3545 31.7041C41.4022 31.8008 41.4688 31.8868 41.5504 31.9572L41.5596 31.9651L45.0864 35.0122C45.4246 35.3058 45.6323 35.7217 45.6639 36.1685C45.6955 36.6152 45.5483 37.0562 45.2547 37.3945C44.9611 37.7327 44.5452 37.9404 44.0984 37.972C43.6516 38.0035 43.2106 37.8563 42.8724 37.5628L39.342 34.513C39.2624 34.4418 39.1694 34.3872 39.0684 34.3524C38.9675 34.3175 38.8606 34.3031 38.754 34.31C38.6474 34.3169 38.5433 34.3449 38.4477 34.3925C38.352 34.44 38.2668 34.5061 38.197 34.587C38.1272 34.6678 38.0742 34.7617 38.041 34.8632C38.0079 34.9648 37.9953 35.0719 38.004 35.1783C38.0127 35.2848 38.0424 35.3884 38.0916 35.4832C38.1408 35.5781 38.2083 35.6621 38.2903 35.7306L40.7251 37.8338C40.8944 37.9783 41.0335 38.1549 41.1344 38.3534C41.2352 38.5518 41.2958 38.7683 41.3127 38.9903C41.3296 39.2123 41.3024 39.4354 41.2327 39.6469C41.163 39.8583 41.0522 40.0539 40.9067 40.2224C40.7611 40.3908 40.5837 40.5289 40.3847 40.6285C40.1856 40.7282 39.9688 40.7875 39.7467 40.803C39.5246 40.8186 39.3016 40.79 39.0906 40.7191C38.8796 40.6482 38.6847 40.5362 38.5171 40.3897L36.1079 38.3087C35.9485 38.1669 35.7405 38.0921 35.5273 38.1C35.3142 38.1079 35.1123 38.1979 34.9639 38.3511C34.891 38.4305 34.8348 38.5237 34.7987 38.6252C34.7625 38.7267 34.7471 38.8344 34.7533 38.9419C34.7596 39.0495 34.7874 39.1547 34.8351 39.2513C34.8828 39.3479 34.9493 39.434 35.0309 39.5044L36.3706 40.6616C36.7094 40.9547 36.918 41.3704 36.9504 41.8173C36.9828 42.2642 36.8363 42.7056 36.5432 43.0445C36.2501 43.3834 35.8344 43.5919 35.3875 43.6243C34.9407 43.6567 34.4992 43.5102 34.1604 43.2171L32.578 41.9518C32.7197 41.3883 32.6891 40.7952 32.4902 40.2493C32.2913 39.7033 31.9332 39.2296 31.4623 38.8892L31.1769 38.6837C30.7382 38.368 30.2194 38.1821 29.68 38.1473C29.8033 37.5929 29.7614 37.0146 29.5596 36.4838C29.3578 35.953 29.005 35.4929 28.5446 35.1604L28.2592 34.9548C27.8205 34.6391 27.3017 34.4532 26.7623 34.4184C26.8856 33.8641 26.8437 33.2858 26.642 32.755C26.4402 32.2242 26.0874 31.7642 25.627 31.4317L25.3415 31.2261C24.9319 30.931 24.4519 30.7487 23.9496 30.6976C24.1352 30.1149 24.1317 29.4883 23.9398 28.9077C23.7478 28.327 23.3772 27.8219 22.8808 27.4645L22.5955 27.2589C21.9706 26.8099 21.1932 26.627 20.4337 26.7504C19.6742 26.8738 18.9946 27.2934 18.5441 27.9172L17.6591 29.1453L16.2818 27.7589L23.3023 14.3914C24.2151 14.1489 25.1684 14.0989 26.1016 14.2446C25.9627 14.4736 25.8404 14.7123 25.7357 14.9588L22.902 22.7121C22.84 22.9013 22.8504 23.1069 22.9312 23.2889C23.012 23.4709 23.1574 23.6166 23.3393 23.6976L23.5649 23.7981C24.3861 24.1739 25.2894 24.3347 26.1898 24.2654C27.0903 24.1961 27.9583 23.899 28.7124 23.402C29.3639 22.9718 29.9109 22.4013 30.3134 21.7323C30.716 21.0634 30.9638 20.3128 31.0388 19.5357V19.534C31.0515 19.394 31.0772 19.2555 31.1154 19.1203C31.2361 18.7004 31.5303 17.9268 32.1131 17.672C32.2653 17.6066 32.4355 17.5961 32.5946 17.6422L33.9048 18.0118C34.4668 18.1703 34.9795 18.4689 35.3947 18.8794L37.3945 20.8566C37.8696 21.3259 38.335 21.3734 38.6569 21.1211C38.7474 21.0509 38.8219 20.9622 38.8753 20.8608C38.9288 20.7595 38.96 20.6479 38.9668 20.5336C38.9737 20.4192 38.956 20.3047 38.915 20.1977C38.874 20.0907 38.8107 19.9937 38.7292 19.9132L36.5269 17.736C35.9174 17.134 35.1654 16.6961 34.3411 16.4629L32.7305 16.0085C32.6586 15.9872 32.5838 15.9769 32.5088 15.9782C31.4592 15.9825 30.563 16.5744 29.9853 17.6447C29.7618 18.0658 29.5956 18.515 29.4911 18.9803C29.4722 19.0659 29.4588 19.1526 29.4508 19.2399L29.4374 19.3818C29.3849 19.921 29.2126 20.4418 28.9328 20.9058C28.6531 21.3698 28.2732 21.7655 27.8209 22.0637C27.359 22.3627 26.8371 22.5563 26.292 22.631C25.747 22.7057 25.1921 22.6596 24.6669 22.4959L27.2216 15.5782C27.4416 15.0562 27.7725 14.5882 28.1913 14.2067C28.6101 13.8252 29.1069 13.5393 29.6472 13.3688L33.0837 12.2817C33.8106 12.0512 34.5891 12.0386 35.3231 12.2455L38.8838 13.2464C40.6028 13.7291 41.8125 13.7718 43.5074 13.4084L44.0141 13.2082L50.7102 27.406C50.2002 28.2234 49.486 28.8936 48.638 29.3506H48.6374ZM53.7137 28.0988C53.5186 28.1902 53.2952 28.2004 53.0926 28.1272C52.8899 28.0542 52.7244 27.9037 52.6325 27.7088L44.6255 10.731C44.5639 10.6003 44.5341 10.4569 44.5388 10.3125C44.5435 10.1681 44.5824 10.0269 44.6523 9.90051C44.7531 9.7247 44.908 9.58611 45.0939 9.50532L57.4845 3.86651L66.1223 22.2901L53.7137 28.0988Z" fill="#F5B458"/>
</svg>
