<svg width="44" height="44" viewBox="0 0 44 44" fill="none" xmlns="http://www.w3.org/2000/svg">
<path fill-rule="evenodd" clip-rule="evenodd" d="M6.44141 14.1995V6.4436H19.0312V19.0334H16.1938L9.23645 12.076L8.89765 11.7372L6.44141 14.1995Z" fill="#4A4E52"/>
<path fill-rule="evenodd" clip-rule="evenodd" d="M0 21.9979L8.89936 13.0985L17.7987 21.9979L15.7962 24.0064H5.48118V27.479L0 21.9979Z" fill="#98A1A6"/>
<path fill-rule="evenodd" clip-rule="evenodd" d="M6.44141 37.5585H14.1913L12.0799 35.4411L11.735 35.0962L19.0312 27.8061V24.9688H6.44141V37.5585Z" fill="#4A4E52"/>
<path fill-rule="evenodd" clip-rule="evenodd" d="M21.998 44L13.0986 35.0945L21.998 26.1952L24.0065 28.2037V38.5188H27.4792L21.998 44Z" fill="#98A1A6"/>
<path fill-rule="evenodd" clip-rule="evenodd" d="M37.5585 37.5585H24.9688V24.9688H27.8061L34.7574 31.92L35.1023 32.2588L35.4411 31.92L37.5585 29.8026V37.5585Z" fill="#4A4E52"/>
<path fill-rule="evenodd" clip-rule="evenodd" d="M44.0001 21.9538L35.1007 30.8532L26.1953 21.9538L28.2039 19.9453H38.5189V16.4727L44.0001 21.9538Z" fill="#98A1A6"/>
<path fill-rule="evenodd" clip-rule="evenodd" d="M37.5585 6.4436V19.0334H24.9688V16.1899L31.92 9.23864L32.2588 8.89985L31.92 8.56106L29.8026 6.4436H37.5585Z" fill="#4A4E52"/>
<path fill-rule="evenodd" clip-rule="evenodd" d="M30.9061 8.89936L22.0068 17.7987L19.9982 15.7902V5.48118H16.5195L22.0068 0L30.9061 8.89936Z" fill="#98A1A6"/>
</svg>
